<svg width="58" height="57" viewBox="0 0 58 57" fill="none" xmlns="http://www.w3.org/2000/svg">
<path d="M52.6 30.1C52.6 44.349 41.049 55.9001 26.8 55.9001C12.5511 55.9001 1 44.349 1 30.1C1 15.8511 12.5511 4.30005 26.8 4.30005C41.049 4.30005 52.6 15.8511 52.6 30.1Z" fill="#FF406E" stroke="white" stroke-width="2"/>
<path fill-rule="evenodd" clip-rule="evenodd" d="M26.9004 17.1783C19.7639 17.1783 13.9786 22.9636 13.9786 30.1001C13.9786 37.2367 19.7639 43.022 26.9004 43.022C34.037 43.022 39.8223 37.2367 39.8223 30.1001C39.8223 22.9636 34.037 17.1783 26.9004 17.1783ZM7.82227 30.1001C7.82227 19.5636 16.3638 11.022 26.9004 11.022C37.437 11.022 45.9786 19.5636 45.9786 30.1001C45.9786 40.6367 37.437 49.1783 26.9004 49.1783C16.3638 49.1783 7.82227 40.6367 7.82227 30.1001Z" fill="white"/>
<path d="M47.3999 19.4C47.0999 19.4 46.7999 19.4 46.5999 19.4C44.1999 19.1999 41.9999 18 40.3999 16.2C38.7999 14.3 38.0999 12 38.2999 9.49995C38.6999 4.79995 42.5999 1.19995 47.3999 1.19995C47.6999 1.19995 47.9999 1.19995 48.1999 1.19995C50.5999 1.39995 52.7999 2.59995 54.3999 4.39995C55.9999 6.29995 56.6999 8.59995 56.4999 11.1C56.0999 15.8 52.1999 19.4 47.3999 19.4Z" fill="white"/>
<path d="M47.3996 2.1C47.5996 2.1 47.8996 2.1 48.0996 2.1C52.5996 2.5 55.7996 6.4 55.3996 10.9C54.9996 15.1 51.4996 18.3 47.2996 18.3C47.0996 18.3 46.7996 18.3 46.5996 18.3C42.0996 17.9 38.8996 14 39.2996 9.5C39.6996 5.3 43.2996 2.1 47.3996 2.1ZM47.3996 0C42.0996 0 37.6996 4 37.2996 9.3C37.0996 12 37.8996 14.7 39.5996 16.7C41.2996 18.8 43.7996 20.1 46.4996 20.3C46.7996 20.3 47.0996 20.3 47.3996 20.3C52.6996 20.3 57.0996 16.3 57.4996 11C57.6996 8.3 56.8996 5.6 55.1996 3.6C53.4996 1.6 50.9996 0.2 48.2996 0C47.9996 0.1 47.6996 0 47.3996 0Z" fill="#FF406E"/>
<path d="M42.4998 8.5C42.4998 8.5 42.7998 14.5 37.2998 14L38.6998 18L42.7998 20.5C42.7998 20.5 42.3998 14.9 48.7998 15.5L42.4998 8.5Z" fill="white"/>
<path d="M44.1998 55.2999C44.0998 55.2999 43.8998 55.2999 43.7998 55.2999C42.0998 55.1999 40.5998 54.4999 39.4998 53.1999C38.3998 51.9999 37.8998 50.3999 37.9998 48.6999C38.1998 45.3999 40.8998 42.8999 44.1998 42.8999C44.2998 42.8999 44.4998 42.8999 44.5998 42.8999C47.9998 43.0999 50.5998 46.0999 50.3998 49.4999C50.0998 52.7999 47.3998 55.2999 44.1998 55.2999Z" fill="white"/>
<path d="M44.1998 43.5999C44.2998 43.5999 44.3998 43.5999 44.5998 43.5999C47.5998 43.7999 49.8998 46.4 49.6998 49.4C49.4998 52.3 47.0998 54.5 44.1998 54.5C44.0998 54.5 43.9998 54.5 43.7998 54.5C40.7998 54.3 38.4998 51.7 38.6998 48.7C38.8998 45.9 41.2998 43.5999 44.1998 43.5999ZM44.1998 42.2C40.5998 42.2 37.4998 45 37.2998 48.7C37.1998 50.5 37.7998 52.3 38.9998 53.7C40.1998 55.1 41.8998 55.9 43.6998 56C43.7998 56 43.9998 56 44.0998 56C47.6998 56 50.7998 53.2 50.9998 49.5C51.0998 47.7 50.4998 45.9 49.2998 44.5C48.0998 43.1 46.3998 42.3 44.5998 42.2C44.3998 42.2 44.2998 42.2 44.1998 42.2Z" fill="#FF406E"/>
<path d="M45.1996 45.7001C45.1996 45.7001 41.0996 46 41.3996 42.3L38.6996 43.3L37.0996 46.1C37.0996 46.1 40.8996 45.8 40.5996 50.1L45.1996 45.7001Z" fill="white"/>
</svg>
